.
..............................Site Info...........................

 -   http://www.scenetime.com  *_*   


Scenetime .Always on time . friendly online private torrent community ..

     We care to share . Join us on  http://www.scenetime.com 

    Be the first to get new release at  http://www.scenetime.com

        Seed back for speed


...................................NFO:.................................................[img]http://i.imgur.com/kN8rN.jpg[/img]

[b]American.Pie.Reunion.2012.TS.V2.XviD.AC3-ADTRG[/b]

Jim, Michelle, Stifler, and their friends reunite in East Great Falls, Michigan for their high school reunion. 

[url]http://www.imdb.com/title/tt1605630/[/url]

Source -  American Reunion 2012 Cam XviD-RiPRG   Thanks
          LiNe Audio - Dragon Exclusive , cheers Bro for the awesome quality Line  ;)

Complete name                            : American.Pie.Reunion.2012.TS.V2.XviD.AC3-ADTRG.avi
Format                                   : AVI
Format/Info                              : Audio Video Interleave
File size                                : 1.26 GiB
Duration                                 : 1h 46mn
Overall bit rate                         : 1 698 Kbps
Writing library                          : VirtualDub build 34703/release

Video
ID                                       : 0
Format                                   : MPEG-4 Visual
Codec ID                                 : XVID
Duration                                 : 1h 46mn
Bit rate                                 : 1 495 Kbps
Width                                    : 720 pixels
Height                                   : 336 pixels
Display aspect ratio                     : 2.2:1
Frame rate                               : 29.970 fps
Stream size                              : 1.11 GiB (88%)

Audio
ID                                       : 1
Format                                   : AC-3
Bit rate                                 : 192 Kbps
Channel(s)                               : 2 channels
Stream size                              : 146 MiB (11%)



Encoder - LiMeY
Good things come in small packages, So feel the wrath of my compression

[img]http://i.imgur.com/CXOp0.jpg[/img]


[IMG]http://i.imgur.com/2739o.gif?1?8830[/IMG]

Dont fear the Atomic Dragon, Embrace it  :)


Greetz to DragonMaster,cOOkies,Mr Geek,DBratt420,AnimeKing,Cush,NoWoRRiEs Rayne, Mr & Mrs IrNbRu and the rest of the crew

Respect to CM8,Goon,Hope,mSD,InfernO,legend-rg and maybe a few more ;)